<svg xmlns="http://www.w3.org/2000/svg" viewBox="0 0 1912 968" preserveAspectRatio="xMidYMid" width="1912" height="968" style="shape-rendering: auto; display: block; background: rgb(153, 204, 255);"><g data-idx="1"><defs data-idx="2">
<linearGradient y2="1" y1="0" x2="0" x1="0" id="lg-0.6590519274487807" data-idx="3">
  <stop offset="0" stop-color="#3184ce" data-idx="4"></stop>
  <stop offset="1" stop-color="#e9f6ff" data-idx="5"></stop>
</linearGradient>
</defs>
<rect fill="url(#lg-0.6590519274487807)" height="968" width="1912" y="0" x="0" data-idx="6"></rect><circle fill="#91cbf0" r="87.97000810825973" cy="490.4359902700883" cx="0" data-idx="7" transform="matrix(1,0,0,1,-6.255842208862305,0)">

</circle><circle fill="#91cbf0" r="73.04003152741286" cy="516.4172326679758" cx="87.97000810825973" data-idx="9" transform="matrix(1,0,0,1,-5.872034072875977,0)">

</circle><circle fill="#91cbf0" r="64.49646651848087" cy="531.6392761156909" cx="161.0100396356726" data-idx="11" transform="matrix(1,0,0,1,-5.478695869445801,0)">

</circle><circle fill="#91cbf0" r="70.72304043361001" cy="531.1513963576374" cx="225.50650615415347" data-idx="13" transform="matrix(1,0,0,1,-5.07999324798584,0)">

</circle><circle fill="#91cbf0" r="35.01620246678864" cy="567.0008504875049" cx="296.2295465877635" data-idx="15" transform="matrix(1,0,0,1,-4.680386543273926,0)">

</circle><circle fill="#91cbf0" r="91.24378012584413" cy="524.445682628511" cx="331.2457490545521" data-idx="17" transform="matrix(1,0,0,1,-4.284382343292236,0)">

</circle><circle fill="#91cbf0" r="78.97236630873554" cy="543.1139108814498" cx="422.48952918039623" data-idx="19" transform="matrix(1,0,0,1,-3.896289348602295,0)">

</circle><circle fill="#91cbf0" r="58.14489085412977" cy="562.8254370596308" cx="501.4618954891318" data-idx="21" transform="matrix(1,0,0,1,-3.520000457763672,0)">

</circle><circle fill="#91cbf0" r="35.63079850141334" cy="578.2713723140616" cx="559.6067863432615" data-idx="23" transform="matrix(1,0,0,1,-3.1588263511657715,0)">

</circle><circle fill="#91cbf0" r="66.60680088360473" cy="565.8377861683609" cx="595.2375848446749" data-idx="25" transform="matrix(1,0,0,1,-2.8154125213623047,0)">

</circle><circle fill="#91cbf0" r="69.8572789625591" cy="570.2063881114027" cx="661.8443857282796" data-idx="27" transform="matrix(1,0,0,1,-2.4917240142822266,0)">

</circle><circle fill="#91cbf0" r="40.62534352937435" cy="584.56209591004" cx="731.7016646908387" data-idx="29" transform="matrix(1,0,0,1,-2.1890740394592285,0)">

</circle><circle fill="#91cbf0" r="80.41153107185744" cy="577.4609709386259" cx="772.3270082202131" data-idx="31" transform="matrix(1,0,0,1,-1.9082069396972656,0)">

</circle><circle fill="#91cbf0" r="83.38517116922058" cy="585.1918729167601" cx="852.7385392920705" data-idx="33" transform="matrix(1,0,0,1,-1.6493892669677734,0)">

</circle><circle fill="#91cbf0" r="31.93733375787143" cy="595.2031853227626" cx="936.1237104612911" data-idx="35" transform="matrix(1,0,0,1,-1.4125080108642578,0)">

</circle><circle fill="#91cbf0" r="73.76372484198069" cy="594.8832624931933" cx="968.0610442191626" data-idx="37" transform="matrix(1,0,0,1,-1.1971673965454102,0)">

</circle><circle fill="#91cbf0" r="73.60817560611127" cy="588.0702033400754" cx="1041.8247690611433" data-idx="39" transform="matrix(1,0,0,1,-1.0027589797973633,0)">

</circle><circle fill="#91cbf0" r="87.48523896292998" cy="578.492013477684" cx="1115.4329446672546" data-idx="41" transform="matrix(1,0,0,1,-0.8285398483276367,0)">

</circle><circle fill="#91cbf0" r="62.4365731843411" cy="576.6484620383633" cx="1202.9181836301846" data-idx="43" transform="matrix(1,0,0,1,-0.6736774444580078,0)">

</circle><circle fill="#91cbf0" r="40.375028932684664" cy="580.3219155771756" cx="1265.3547568145257" data-idx="45" transform="matrix(1,0,0,1,-0.5372915267944336,0)">

</circle><circle fill="#91cbf0" r="79.52183048461347" cy="561.0906032582303" cx="1305.7297857472104" data-idx="47" transform="matrix(1,0,0,1,-0.4184856414794922,0)">

</circle><circle fill="#91cbf0" r="34.94768933975688" cy="577.1698508795084" cx="1385.2516162318238" data-idx="49" transform="matrix(1,0,0,1,-0.31637001037597656,0)">

</circle><circle fill="#91cbf0" r="42.74258273715709" cy="571.0948821444466" cx="1420.1993055715807" data-idx="51" transform="matrix(1,0,0,1,-0.2300729751586914,0)">

</circle><circle fill="#91cbf0" r="65.80553651645397" cy="554.1260465152877" cx="1462.9418883087378" data-idx="53" transform="matrix(1,0,0,1,-0.15875625610351562,0)">

</circle><circle fill="#91cbf0" r="65.98982062447575" cy="548.557950007517" cx="1528.7474248251917" data-idx="55" transform="matrix(1,0,0,1,-0.10161590576171875,0)">

</circle><circle fill="#91cbf0" r="62.619377563966665" cy="545.7941480288945" cx="1594.7372454496674" data-idx="57" transform="matrix(1,0,0,1,-0.057890892028808594,0)">

</circle><circle fill="#91cbf0" r="46.62174882918156" cy="554.9558924880862" cx="1657.3566230136341" data-idx="59" transform="matrix(1,0,0,1,-0.026861190795898438,0)">

</circle><circle fill="#91cbf0" r="42.664975480710055" cy="555.9424951111608" cx="1703.9783718428157" data-idx="61" transform="matrix(1,0,0,1,-0.007846832275390625,0)">

</circle><circle fill="#91cbf0" r="91.14005921361702" cy="505.54901904780104" cx="1746.6433473235259" data-idx="63" transform="matrix(1,0,0,1,-0.000213623046875,0)">

</circle><circle fill="#91cbf0" r="90.66296908291761" cy="495.6504999271463" cx="1837.7834065371428" data-idx="65" transform="matrix(1,0,0,1,-0.003462531603872776,0)">

</circle><circle fill="#91cbf0" r="39.07931999617318" cy="548.2980630644663" cx="1928.4463756200605" data-idx="67" transform="matrix(1,0,0,1,-0.01784985512495041,0)">

</circle><circle fill="#91cbf0" r="65.27969425379263" cy="513.1145337158796" cx="1967.5256956162336" data-idx="69" transform="matrix(1,0,0,1,-0.04399457573890686,0)">

</circle><circle fill="#a8d1f5" r="49.67680674621238" cy="598.3878319045451" cx="0" data-idx="71" transform="matrix(1,0,0,1,-9.75389289855957,0)">

</circle><circle fill="#a8d1f5" r="89.50740217802674" cy="556.1724252361838" cx="49.67680674621238" data-idx="73" transform="matrix(1,0,0,1,-9.888052940368652,0)">

</circle><circle fill="#a8d1f5" r="36.3282996593942" cy="620.7528926886292" cx="139.1842089242391" data-idx="75" transform="matrix(1,0,0,1,-9.967915534973145,0)">

</circle><circle fill="#a8d1f5" r="87.49464355597426" cy="572.2822491279856" cx="175.5125085836333" data-idx="77" transform="matrix(1,0,0,1,-9.999140739440918,0)">

</circle><circle fill="#a8d1f5" r="50.26949266801114" cy="614.2723026554366" cx="263.00715213960757" data-idx="79" transform="matrix(1,0,0,1,-9.985947608947754,0)">

</circle><circle fill="#a8d1f5" r="47.94774608753214" cy="619.317402210095" cx="313.2766448076187" data-idx="81" transform="matrix(1,0,0,1,-9.92618179321289,0)">

</circle><circle fill="#a8d1f5" r="75.02896812998074" cy="601.9848532803127" cx="361.22439089515086" data-idx="83" transform="matrix(1,0,0,1,-9.814462661743164,0)">

</circle><circle fill="#a8d1f5" r="70.58354444240884" cy="611.9511797505745" cx="436.2533590251316" data-idx="85" transform="matrix(1,0,0,1,-9.644731521606445,0)">

</circle><circle fill="#a8d1f5" r="81.98436317758208" cy="611.7769659848311" cx="506.8369034675404" data-idx="87" transform="matrix(1,0,0,1,-9.410314559936523,0)">

</circle><circle fill="#a8d1f5" r="59.88973879614779" cy="630.397190252564" cx="588.8212666451225" data-idx="89" transform="matrix(1,0,0,1,-9.104143142700195,0)">

</circle><circle fill="#a8d1f5" r="72.76621834979801" cy="629.9327304503552" cx="648.7110054412702" data-idx="91" transform="matrix(1,0,0,1,-8.719246864318848,0)">

</circle><circle fill="#a8d1f5" r="77.77037951961874" cy="635.1059514915106" cx="721.4772237910682" data-idx="93" transform="matrix(1,0,0,1,-8.24972915649414,0)">

</circle><circle fill="#a8d1f5" r="46.354205606394906" cy="648.8793311814666" cx="799.2476033106869" data-idx="95" transform="matrix(1,0,0,1,-7.692449569702148,0)">

</circle><circle fill="#a8d1f5" r="52.56378820540778" cy="650.7159659401557" cx="845.6018089170818" data-idx="97" transform="matrix(1,0,0,1,-7.049494743347168,0)">

</circle><circle fill="#a8d1f5" r="40.24141752779965" cy="655.0786547861948" cx="898.1655971224897" data-idx="99" transform="matrix(1,0,0,1,-6.3311262130737305,0)">

</circle><circle fill="#a8d1f5" r="40.79222758967081" cy="657.0991752355225" cx="938.4070146502893" data-idx="101" transform="matrix(1,0,0,1,-5.5579304695129395,0)">

</circle><circle fill="#a8d1f5" r="37.060145651288686" cy="656.9207941886036" cx="979.1992422399601" data-idx="103" transform="matrix(1,0,0,1,-4.760164737701416,0)">

</circle><circle fill="#a8d1f5" r="57.912637647970534" cy="653.619522892258" cx="1016.2593878912488" data-idx="105" transform="matrix(1,0,0,1,-3.9730796813964844,0)">

</circle><circle fill="#a8d1f5" r="52.35237288928889" cy="650.2344109463032" cx="1074.1720255392192" data-idx="107" transform="matrix(1,0,0,1,-3.2297139167785645,0)">

</circle><circle fill="#a8d1f5" r="45.44129603161357" cy="648.2734104565657" cx="1126.5243984285082" data-idx="109" transform="matrix(1,0,0,1,-2.5548129081726074,0)">

</circle><circle fill="#a8d1f5" r="81.18955240988412" cy="635.9905965659743" cx="1171.9656944601218" data-idx="111" transform="matrix(1,0,0,1,-1.9626188278198242,0)">

</circle><circle fill="#a8d1f5" r="45.31998215824633" cy="641.0957274229565" cx="1253.1552468700058" data-idx="113" transform="matrix(1,0,0,1,-1.4581451416015625,0)">

</circle><circle fill="#a8d1f5" r="75.30264305481484" cy="625.6285063682463" cx="1298.4752290282522" data-idx="115" transform="matrix(1,0,0,1,-1.0399999618530273,0)">

</circle><circle fill="#a8d1f5" r="83.50138983364398" cy="614.2112556978932" cx="1373.777872083067" data-idx="117" transform="matrix(1,0,0,1,-0.7031431198120117,0)">

</circle><circle fill="#a8d1f5" r="42.06319084630678" cy="631.5329641071568" cx="1457.279261916711" data-idx="119" transform="matrix(1,0,0,1,-0.44088268280029297,0)">

</circle><circle fill="#a8d1f5" r="42.29357445826174" cy="629.154944164518" cx="1499.3424527630177" data-idx="121" transform="matrix(1,0,0,1,-0.2461071014404297,0)">

</circle><circle fill="#a8d1f5" r="77.24415170981821" cy="601.2172073639133" cx="1541.6360272212794" data-idx="123" transform="matrix(1,0,0,1,-0.11194801330566406,0)">

</circle><circle fill="#a8d1f5" r="35.4947313786473" cy="628.4659993045327" cx="1618.8801789310976" data-idx="125" transform="matrix(1,0,0,1,-0.03208446502685547,0)">

</circle><circle fill="#a8d1f5" r="41.5426479702955" cy="621.5828329912748" cx="1654.3749103097448" data-idx="127" transform="matrix(1,0,0,1,-0.0008592605590820312,0)">

</circle><circle fill="#a8d1f5" r="49.24632951687281" cy="612.2616436522442" cx="1695.9175582800403" data-idx="129" transform="matrix(1,0,0,1,-0.014052224345505238,0)">

</circle><circle fill="#a8d1f5" r="87.64676927521016" cy="571.1786629363215" cx="1745.163887796913" data-idx="131" transform="matrix(1,0,0,1,-0.07381847500801086,0)">

</circle><circle fill="#a8d1f5" r="35.185398000457205" cy="619.2749808282949" cx="1832.8106570721231" data-idx="133" transform="matrix(1,0,0,1,-0.18553735315799713,0)">

</circle><circle fill="#a8d1f5" r="85.88298766821187" cy="559.6841682620214" cx="1867.9960550725802" data-idx="135" transform="matrix(1,0,0,1,-0.3552689850330353,0)">

</circle><circle fill="#a8d1f5" r="62.80466053220229" cy="579.3329022616723" cx="1953.879042740792" data-idx="137" transform="matrix(1,0,0,1,-0.5896853804588318,0)">

</circle><circle fill="#bdd7f8" r="74.94806387365327" cy="630.0623233516161" cx="0" data-idx="139" transform="matrix(1,0,0,1,-1.6994173526763916,0)">

</circle><circle fill="#bdd7f8" r="48.21992878127087" cy="666.6724749632469" cx="74.94806387365327" data-idx="141" transform="matrix(1,0,0,1,-2.5548481941223145,0)">

</circle><circle fill="#bdd7f8" r="82.415849204256" cy="633.8428153182056" cx="123.16799265492415" data-idx="143" transform="matrix(1,0,0,1,-3.5941872596740723,0)">

</circle><circle fill="#bdd7f8" r="68.32294261911275" cy="655.6435479751754" cx="205.58384185918015" data-idx="145" transform="matrix(1,0,0,1,-4.760208606719971,0)">

</circle><circle fill="#bdd7f8" r="46.04989039720271" cy="680.5728228257948" cx="273.90678447829293" data-idx="147" transform="matrix(1,0,0,1,-5.949726581573486,0)">

</circle><circle fill="#bdd7f8" r="53.455959368082446" cy="677.3217914508006" cx="319.95667487549565" data-idx="149" transform="matrix(1,0,0,1,-7.049532413482666,0)">

</circle><circle fill="#bdd7f8" r="47.62867126073907" cy="685.1700475427541" cx="373.4126342435781" data-idx="151" transform="matrix(1,0,0,1,-7.982117652893066,0)">

</circle><circle fill="#bdd7f8" r="68.89570330547765" cy="673.7367922636064" cx="421.04130550431717" data-idx="153" transform="matrix(1,0,0,1,-8.719270706176758,0)">

</circle><circle fill="#bdd7f8" r="47.96585209241535" cy="691.9391943499857" cx="489.9370088097948" data-idx="155" transform="matrix(1,0,0,1,-9.266661643981934,0)">

</circle><circle fill="#bdd7f8" r="31.431995697895452" cy="703.5042332919362" cx="537.9028609022101" data-idx="157" transform="matrix(1,0,0,1,-9.644742965698242,0)">

</circle><circle fill="#bdd7f8" r="72.33378287043926" cy="684.8925282097215" cx="569.3348566001056" data-idx="159" transform="matrix(1,0,0,1,-9.877185821533203,0)">

</circle><circle fill="#bdd7f8" r="40.68183168874202" cy="703.9486499955407" cx="641.6686394705448" data-idx="161" transform="matrix(1,0,0,1,-9.985950469970703,0)">

</circle><circle fill="#bdd7f8" r="47.42691895984327" cy="703.7091790446931" cx="682.3504711592868" data-idx="163" transform="matrix(1,0,0,1,-9.989278793334961,0)">

</circle><circle fill="#bdd7f8" r="37.35861460328567" cy="709.3915941877545" cx="729.7773901191301" data-idx="165" transform="matrix(1,0,0,1,-9.888046264648438,0)">

</circle><circle fill="#bdd7f8" r="56.56485150778899" cy="706.590296425049" cx="767.1360047224158" data-idx="167" transform="matrix(1,0,0,1,-9.66448974609375,0)">

</circle><circle fill="#bdd7f8" r="80.59139743039326" cy="706.616519403449" cx="823.7008562302047" data-idx="169" transform="matrix(1,0,0,1,-9.296839714050293,0)">

</circle><circle fill="#bdd7f8" r="92.28188163791411" cy="714.0104333128168" cx="904.292253660598" data-idx="171" transform="matrix(1,0,0,1,-8.761438369750977,0)">

</circle><circle fill="#bdd7f8" r="72.27193199407236" cy="716.3191993970556" cx="996.5741352985121" data-idx="173" transform="matrix(1,0,0,1,-8.037348747253418,0)">

</circle><circle fill="#bdd7f8" r="47.40573162989754" cy="713.2850832030607" cx="1068.8460672925844" data-idx="175" transform="matrix(1,0,0,1,-7.117388725280762,0)">

</circle><circle fill="#bdd7f8" r="61.25622162393574" cy="707.6781342546905" cx="1116.2517989224818" data-idx="177" transform="matrix(1,0,0,1,-6.02687406539917,0)">

</circle><circle fill="#bdd7f8" r="59.28248492497474" cy="703.5168880056854" cx="1177.5080205464176" data-idx="179" transform="matrix(1,0,0,1,-4.840000152587891,0)">

</circle><circle fill="#bdd7f8" r="74.91360104307196" cy="693.5961992842263" cx="1236.7905054713924" data-idx="181" transform="matrix(1,0,0,1,-3.6688289642333984,0)">

</circle><circle fill="#bdd7f8" r="43.404117889872744" cy="700.6204732555661" cx="1311.7041065144645" data-idx="183" transform="matrix(1,0,0,1,-2.618696689605713,0)">

</circle><circle fill="#bdd7f8" r="92.43009083756029" cy="673.6950509175184" cx="1355.1082244043373" data-idx="185" transform="matrix(1,0,0,1,-1.750239372253418,0)">

</circle><circle fill="#bdd7f8" r="52.55755623618605" cy="687.5723188549379" cx="1447.5383152418976" data-idx="187" transform="matrix(1,0,0,1,-1.0780315399169922,0)">

</circle><circle fill="#bdd7f8" r="58.63949080060473" cy="679.9512491420259" cx="1500.0958714780836" data-idx="189" transform="matrix(1,0,0,1,-0.5896692276000977,0)">

</circle><circle fill="#bdd7f8" r="90.13136656333474" cy="651.8091691905128" cx="1558.7353622786884" data-idx="191" transform="matrix(1,0,0,1,-0.2627372741699219,0)">

</circle><circle fill="#bdd7f8" r="73.65093928673866" cy="655.9452484773075" cx="1648.8667288420231" data-idx="193" transform="matrix(1,0,0,1,-0.07381343841552734,0)">

</circle><circle fill="#bdd7f8" r="31.077054235251797" cy="690.0990236677202" cx="1722.5176681287617" data-idx="195" transform="matrix(1,0,0,1,-0.0019397735595703125,0)">

</circle><circle fill="#bdd7f8" r="63.47583669215447" cy="656.4502188159383" cx="1753.5947223640135" data-idx="197" transform="matrix(1,0,0,1,-0.03208770975470543,0)">

</circle><circle fill="#bdd7f8" r="59.837137279189704" cy="655.325526465298" cx="1817.070559056168" data-idx="199" transform="matrix(1,0,0,1,-0.17186808586120605,0)">

</circle><circle fill="#bdd7f8" r="54.67722181279162" cy="656.7958062155205" cx="1876.9076963353575" data-idx="201" transform="matrix(1,0,0,1,-0.4408964216709137,0)">

</circle><circle fill="#bdd7f8" r="89.3214928725831" cy="610.618366552758" cx="1931.5849181481492" data-idx="203" transform="matrix(1,0,0,1,-0.8618282675743103,0)">

</circle><circle fill="#cfddfa" r="41.89465034227508" cy="731.7264195892699" cx="0" data-idx="205" transform="matrix(1,0,0,1,-1.1169309616088867,0)">

</circle><circle fill="#cfddfa" r="85.80908498995112" cy="683.5415770227422" cx="41.89465034227508" data-idx="207" transform="matrix(1,0,0,1,-0.48770904541015625,0)">

</circle><circle fill="#cfddfa" r="74.68882522005681" cy="704.3458473528905" cx="127.70373533222619" data-idx="209" transform="matrix(1,0,0,1,-0.13424205780029297,0)">

</circle><circle fill="#cfddfa" r="81.97036547638453" cy="704.4600704134916" cx="202.392560552283" data-idx="211" transform="matrix(1,0,0,1,-0.0034627914428710938,0)">

</circle><circle fill="#cfddfa" r="58.71913535038282" cy="732.4962992641953" cx="284.3629260286675" data-idx="213" transform="matrix(1,0,0,1,-0.057891201227903366,0)">

</circle><circle fill="#cfddfa" r="42.882313137355624" cy="749.0083611237078" cx="343.08206137905034" data-idx="215" transform="matrix(1,0,0,1,-0.31636908650398254,0)">

</circle><circle fill="#cfddfa" r="33.07455076675966" cy="758.3343026352485" cx="385.964374516406" data-idx="217" transform="matrix(1,0,0,1,-0.8285400867462158,0)">

</circle><circle fill="#cfddfa" r="72.6063091767921" cy="733.0626420835234" cx="419.03892528316567" data-idx="219" transform="matrix(1,0,0,1,-1.6493887901306152,0)">

</circle><circle fill="#cfddfa" r="49.2477319272429" cy="753.2948715324849" cx="491.64523445995775" data-idx="221" transform="matrix(1,0,0,1,-2.815413236618042,0)">

</circle><circle fill="#cfddfa" r="71.78585069343174" cy="744.5956340543241" cx="540.8929663872007" data-idx="223" transform="matrix(1,0,0,1,-4.284382343292236,0)">

</circle><circle fill="#cfddfa" r="67.56407087475797" cy="752.8834601645566" cx="612.6788170806324" data-idx="225" transform="matrix(1,0,0,1,-5.872034072875977,0)">

</circle><circle fill="#cfddfa" r="44.80609904550441" cy="766.4908780651384" cx="680.2428879553903" data-idx="227" transform="matrix(1,0,0,1,-7.316516876220703,0)">

</circle><circle fill="#cfddfa" r="51.70176622301191" cy="767.0118301886433" cx="725.0489870008947" data-idx="229" transform="matrix(1,0,0,1,-8.447978973388672,0)">

</circle><circle fill="#cfddfa" r="88.13157515749208" cy="762.1704789152664" cx="776.7507532239066" data-idx="231" transform="matrix(1,0,0,1,-9.235678672790527,0)">

</circle><circle fill="#cfddfa" r="73.9213003498568" cy="773.5453513336005" cx="864.8823283813987" data-idx="233" transform="matrix(1,0,0,1,-9.720000267028809,0)">

</circle><circle fill="#cfddfa" r="50.81538112024325" cy="780.9031295063936" cx="938.8036287312555" data-idx="235" transform="matrix(1,0,0,1,-9.956005096435547,0)">

</circle><circle fill="#cfddfa" r="68.49021569321097" cy="779.1097407077975" cx="989.6190098514987" data-idx="237" transform="matrix(1,0,0,1,-9.99215316772461,0)">

</circle><circle fill="#cfddfa" r="49.74641082468316" cy="775.6239738707899" cx="1058.1092255447097" data-idx="239" transform="matrix(1,0,0,1,-9.841243743896484,0)">

</circle><circle fill="#cfddfa" r="40.20247563258258" cy="774.3368545763881" cx="1107.8556363693929" data-idx="241" transform="matrix(1,0,0,1,-9.462709426879883,0)">

</circle><circle fill="#cfddfa" r="77.67293860084946" cy="763.2748310359943" cx="1148.0581120019754" data-idx="243" transform="matrix(1,0,0,1,-8.80283260345459,0)">

</circle><circle fill="#cfddfa" r="48.26257381903587" cy="765.6595212456006" cx="1225.7310506028248" data-idx="245" transform="matrix(1,0,0,1,-7.810925483703613,0)">

</circle><circle fill="#cfddfa" r="42.27659382635825" cy="765.1250787041157" cx="1273.9936244218607" data-idx="247" transform="matrix(1,0,0,1,-6.479999542236328,0)">

</circle><circle fill="#cfddfa" r="92.49649681889102" cy="740.1710463228399" cx="1316.270218248219" data-idx="249" transform="matrix(1,0,0,1,-4.92000675201416,0)">

</circle><circle fill="#cfddfa" r="79.54105630597579" cy="736.794716179969" cx="1408.76671506711" data-idx="251" transform="matrix(1,0,0,1,-3.373551368713379,0)">

</circle><circle fill="#cfddfa" r="66.62349851864731" cy="737.4842602290303" cx="1488.3077713730859" data-idx="253" transform="matrix(1,0,0,1,-2.0740890502929688,0)">

</circle><circle fill="#cfddfa" r="55.306864795396926" cy="740.4204885786977" cx="1554.931269891733" data-idx="255" transform="matrix(1,0,0,1,-1.1169309616088867,0)">

</circle><circle fill="#cfddfa" r="78.42229429592103" cy="717.5980892827843" cx="1610.23813468713" data-idx="257" transform="matrix(1,0,0,1,-0.48770904541015625,0)">

</circle><circle fill="#cfddfa" r="73.37070858472833" cy="714.5240818077689" cx="1688.6604289830511" data-idx="259" transform="matrix(1,0,0,1,-0.13424205780029297,0)">

</circle><circle fill="#cfddfa" r="82.23063161155912" cy="698.8027830032025" cx="1762.0311375677795" data-idx="261" transform="matrix(1,0,0,1,-0.0034627914428710938,0)">

</circle><circle fill="#cfddfa" r="66.10226342241049" cy="708.2977655384741" cx="1844.2617691793387" data-idx="263" transform="matrix(1,0,0,1,-0.057891201227903366,0)">

</circle><circle fill="#cfddfa" r="48.38660462270843" cy="724.0354370983667" cx="1910.3640326017492" data-idx="265" transform="matrix(1,0,0,1,-0.31636908650398254,0)">

</circle><circle fill="#cfddfa" r="53.46344782720061" cy="714.7064773511189" cx="1958.7506372244575" data-idx="267" transform="matrix(1,0,0,1,-0.8285400867462158,0)">

</circle><circle fill="#dfe5fb" r="45.59750338752429" cy="789.2829959349708" cx="0" data-idx="269" transform="matrix(1,0,0,1,-9.487848281860352,0)">

</circle><circle fill="#dfe5fb" r="62.20178954206068" cy="772.917994360432" cx="45.59750338752429" data-idx="271" transform="matrix(1,0,0,1,-8.632266998291016,0)">

</circle><circle fill="#dfe5fb" r="88.96678072101892" cy="749.2782180167195" cx="107.79929292958496" data-idx="273" transform="matrix(1,0,0,1,-7.250953197479248,0)">

</circle><circle fill="#dfe5fb" r="72.18762834909471" cy="775.2042303280325" cx="196.7660736506039" data-idx="275" transform="matrix(1,0,0,1,-5.399243354797363,0)">

</circle><circle fill="#dfe5fb" r="51.261549774476784" cy="799.791977402955" cx="268.9537019996986" data-idx="277" transform="matrix(1,0,0,1,-3.446460247039795,0)">

</circle><circle fill="#dfe5fb" r="38.95551564122921" cy="812.9113104134317" cx="320.2152517741754" data-idx="279" transform="matrix(1,0,0,1,-1.8546791076660156,0)">

</circle><circle fill="#dfe5fb" r="54.69898370837054" cy="803.0218169834844" cx="359.1707674154046" data-idx="281" transform="matrix(1,0,0,1,-0.7960472106933594,0)">

</circle><circle fill="#dfe5fb" r="35.62332864830422" cy="819.7583882520024" cx="413.86975112377513" data-idx="283" transform="matrix(1,0,0,1,-0.21463775634765625,0)">

</circle><circle fill="#dfe5fb" r="34.19325299745025" cy="822.2605197468879" cx="449.49307977207934" data-idx="285" transform="matrix(1,0,0,1,-0.0054302215576171875,0)">

</circle><circle fill="#dfe5fb" r="49.57894267363189" cy="814.6065118431895" cx="483.6863327695296" data-idx="287" transform="matrix(1,0,0,1,-0.09182170033454895,0)">

</circle><circle fill="#dfe5fb" r="69.09249044081015" cy="807.3374959220395" cx="533.2652754431615" data-idx="289" transform="matrix(1,0,0,1,-0.5121519565582275,0)">

</circle><circle fill="#dfe5fb" r="74.66598441772159" cy="810.8555913699302" cx="602.3577658839716" data-idx="291" transform="matrix(1,0,0,1,-1.3677335977554321,0)">

</circle><circle fill="#dfe5fb" r="73.91616937799" cy="818.116080679745" cx="677.0237503016932" data-idx="293" transform="matrix(1,0,0,1,-2.749046802520752,0)">

</circle><circle fill="#dfe5fb" r="76.68369742692701" cy="824.261801062396" cx="750.9399196796833" data-idx="295" transform="matrix(1,0,0,1,-4.60075569152832,0)">

</circle><circle fill="#dfe5fb" r="44.5961578048296" cy="836.813690255322" cx="827.6236171066103" data-idx="297" transform="matrix(1,0,0,1,-6.553539276123047,0)">

</circle><circle fill="#dfe5fb" r="50.55008816415096" cy="838.6839777012898" cx="872.2197749114398" data-idx="299" transform="matrix(1,0,0,1,-8.1453218460083,0)">

</circle><circle fill="#dfe5fb" r="82.67548581795782" cy="840.5514840409755" cx="922.7698630755907" data-idx="301" transform="matrix(1,0,0,1,-9.20395278930664,0)">

</circle><circle fill="#dfe5fb" r="84.23259190248308" cy="838.7720796299253" cx="1005.4453488935485" data-idx="303" transform="matrix(1,0,0,1,-9.785362243652344,0)">

</circle><circle fill="#dfe5fb" r="41.93104933157285" cy="836.9641133932282" cx="1089.6779407960316" data-idx="305" transform="matrix(1,0,0,1,-9.994569778442383,0)">

</circle><circle fill="#dfe5fb" r="62.576582128031475" cy="830.2062631048443" cx="1131.6089901276046" data-idx="307" transform="matrix(1,0,0,1,-9.908178329467773,0)">

</circle><circle fill="#dfe5fb" r="82.95687922928684" cy="819.1977425710007" cx="1194.185572255636" data-idx="309" transform="matrix(1,0,0,1,-9.487848281860352,0)">

</circle><circle fill="#dfe5fb" r="58.2544651526881" cy="820.5171777208235" cx="1277.142451484923" data-idx="311" transform="matrix(1,0,0,1,-8.632266998291016,0)">

</circle><circle fill="#dfe5fb" r="54.35038205814649" cy="818.1166936766482" cx="1335.396916637611" data-idx="313" transform="matrix(1,0,0,1,-7.250953197479248,0)">

</circle><circle fill="#dfe5fb" r="50.82810351399346" cy="816.3265030162892" cx="1389.7472986957575" data-idx="315" transform="matrix(1,0,0,1,-5.399243354797363,0)">

</circle><circle fill="#dfe5fb" r="45.66033741242444" cy="816.2269334309726" cx="1440.575402209751" data-idx="317" transform="matrix(1,0,0,1,-3.446460247039795,0)">

</circle><circle fill="#dfe5fb" r="85.81413735061884" cy="786.8848670441703" cx="1486.2357396221755" data-idx="319" transform="matrix(1,0,0,1,-1.8546791076660156,0)">

</circle><circle fill="#dfe5fb" r="82.04686469543392" cy="780.5544423828968" cx="1572.0498769727944" data-idx="321" transform="matrix(1,0,0,1,-0.7960472106933594,0)">

</circle><circle fill="#dfe5fb" r="59.95237830875272" cy="791.4654059172369" cx="1654.0967416682283" data-idx="323" transform="matrix(1,0,0,1,-0.21463775634765625,0)">

</circle><circle fill="#dfe5fb" r="33.81548555581256" cy="811.8236831792744" cx="1714.049119976981" data-idx="325" transform="matrix(1,0,0,1,-0.0054302215576171875,0)">

</circle><circle fill="#dfe5fb" r="53.53867528802257" cy="790.7840393459854" cx="1747.8646055327936" data-idx="327" transform="matrix(1,0,0,1,-0.09182170033454895,0)">

</circle><circle fill="#dfe5fb" r="39.114064385717604" cy="802.4931066636958" cx="1801.4032808208162" data-idx="329" transform="matrix(1,0,0,1,-0.5121519565582275,0)">

</circle><circle fill="#dfe5fb" r="64.33834145520584" cy="772.5668883109412" cx="1840.517345206534" data-idx="331" transform="matrix(1,0,0,1,-1.3677335977554321,0)">

</circle><circle fill="#dfe5fb" r="47.12318485879189" cy="787.8747674558028" cx="1904.8556866617398" data-idx="333" transform="matrix(1,0,0,1,-2.749046802520752,0)">

</circle><circle fill="#dfe5fb" r="76.34836055004293" cy="748.5506016948856" cx="1951.9788715205318" data-idx="335" transform="matrix(1,0,0,1,-4.60075569152832,0)">

</circle><circle fill="#ecedfc" r="78.52552563781877" cy="811.7693692346174" cx="0" data-idx="337" transform="matrix(1,0,0,1,-7.184884071350098,0)">

</circle><circle fill="#ecedfc" r="47.86189973416273" cy="853.2833531658454" cx="78.52552563781877" data-idx="339" transform="matrix(1,0,0,1,-8.803016662597656,0)">

</circle><circle fill="#ecedfc" r="32.96442585529521" cy="871.6723403285198" cx="126.38742537198151" data-idx="341" transform="matrix(1,0,0,1,-9.683714866638184,0)">

</circle><circle fill="#ecedfc" r="42.87005452991492" cy="863.1309419509928" cx="159.3518512272767" data-idx="343" transform="matrix(1,0,0,1,-9.992164611816406,0)">

</circle><circle fill="#ecedfc" r="65.78304326539208" cy="843.7583887204023" cx="202.22190575719162" data-idx="345" transform="matrix(1,0,0,1,-9.865704536437988,0)">

</circle><circle fill="#ecedfc" r="83.02640347600914" cy="834.2990526879308" cx="268.0049490225837" data-idx="347" transform="matrix(1,0,0,1,-9.2355375289917,0)">

</circle><circle fill="#ecedfc" r="86.46963351604985" cy="840.337133173874" cx="351.0313524985928" data-idx="349" transform="matrix(1,0,0,1,-7.925654411315918,0)">

</circle><circle fill="#ecedfc" r="55.37675331037717" cy="869.9588385073545" cx="437.50098601464265" data-idx="351" transform="matrix(1,0,0,1,-5.871678829193115,0)">

</circle><circle fill="#ecedfc" r="77.34759869434893" cy="861.0359061525841" cx="492.87773932501983" data-idx="353" transform="matrix(1,0,0,1,-3.5196638107299805,0)">

</circle><circle fill="#ecedfc" r="80.39635638574617" cy="867.0691917876331" cx="570.2253380193688" data-idx="355" transform="matrix(1,0,0,1,-1.6491632461547852,0)">

</circle><circle fill="#ecedfc" r="63.487238465111446" cy="881.6640686493212" cx="650.621694405115" data-idx="357" transform="matrix(1,0,0,1,-0.5371742248535156,0)">

</circle><circle fill="#ecedfc" r="91.62833140932558" cy="878.1789855264574" cx="714.1089328702265" data-idx="359" transform="matrix(1,0,0,1,-0.057857513427734375,0)">

</circle><circle fill="#ecedfc" r="62.197970116942" cy="894.2685726200456" cx="805.737264279552" data-idx="361" transform="matrix(1,0,0,1,-0.044024281203746796,0)">

</circle><circle fill="#ecedfc" r="56.63993056976296" cy="899.7389344651568" cx="867.935234396494" data-idx="363" transform="matrix(1,0,0,1,-0.4878203272819519,0)">

</circle><circle fill="#ecedfc" r="79.42148862089297" cy="902.8671876426203" cx="924.575164966257" data-idx="365" transform="matrix(1,0,0,1,-1.5522421598434448,0)">

</circle><circle fill="#ecedfc" r="45.55890820082128" cy="903.2552194961629" cx="1003.99665358715" data-idx="367" transform="matrix(1,0,0,1,-3.3738884925842285,0)">

</circle><circle fill="#ecedfc" r="83.68078622234479" cy="896.1730506704303" cx="1049.5555617879713" data-idx="369" transform="matrix(1,0,0,1,-5.715982913970947,0)">

</circle><circle fill="#ecedfc" r="70.77721811561699" cy="890.2540221826675" cx="1133.236348010316" data-idx="371" transform="matrix(1,0,0,1,-7.811197757720947,0)">

</circle><circle fill="#ecedfc" r="41.66766876043903" cy="893.0282672115934" cx="1204.013566125933" data-idx="373" transform="matrix(1,0,0,1,-9.171613693237305,0)">

</circle><circle fill="#ecedfc" r="76.72900287055181" cy="878.1000598705338" cx="1245.681234886372" data-idx="375" transform="matrix(1,0,0,1,-9.841303825378418,0)">

</circle><circle fill="#ecedfc" r="34.966643926518714" cy="889.9178205255096" cx="1322.4102377569238" data-idx="377" transform="matrix(1,0,0,1,-9.996529579162598,0)">

</circle><circle fill="#ecedfc" r="83.68702101282975" cy="863.8367754834649" cx="1357.3768816834427" data-idx="379" transform="matrix(1,0,0,1,-9.719917297363281,0)">

</circle><circle fill="#ecedfc" r="60.39956553540802" cy="869.2247083936013" cx="1441.0639026962724" data-idx="381" transform="matrix(1,0,0,1,-8.88288402557373,0)">

</circle><circle fill="#ecedfc" r="88.54157605901874" cy="845.3771608872157" cx="1501.4634682316805" data-idx="383" transform="matrix(1,0,0,1,-7.316206932067871,0)">

</circle><circle fill="#ecedfc" r="58.50368848965316" cy="859.4414640852906" cx="1590.0050442906993" data-idx="385" transform="matrix(1,0,0,1,-5.07961368560791,0)">

</circle><circle fill="#ecedfc" r="80.88081696390515" cy="835.6937170770959" cx="1648.5087327803524" data-idx="387" transform="matrix(1,0,0,1,-2.815095901489258,0)">

</circle><circle fill="#ecedfc" r="41.287519451113035" cy="865.9188250062507" cx="1729.3895497442575" data-idx="389" transform="matrix(1,0,0,1,-1.1969709396362305,0)">

</circle><circle fill="#ecedfc" r="86.52825689375297" cy="817.5155815119831" cx="1770.6770691953704" data-idx="391" transform="matrix(1,0,0,1,-0.31627845764160156,0)">

</circle><circle fill="#ecedfc" r="71.76791901069376" cy="824.8146893036359" cx="1857.2053260891234" data-idx="393" transform="matrix(1,0,0,1,-0.007834434509277344,0)">

</circle><circle fill="#ecedfc" r="56.637102905886564" cy="836.8288044258669" cx="1928.9732450998172" data-idx="395" transform="matrix(1,0,0,1,-0.13429872691631317,0)">

</circle><circle fill="#ecedfc" r="31.751549471483074" cy="864.9643633041163" cx="1985.6103480057038" data-idx="397" transform="matrix(1,0,0,1,-0.7644718885421753,0)">

</circle><circle fill="#f7f5fd" r="57.46598029955571" cy="899.0408236405332" cx="0" data-idx="399" transform="matrix(1,0,0,1,-0.03781715780496597,0)">

</circle><circle fill="#f7f5fd" r="82.20447624517918" cy="875.2842864293508" cx="57.46598029955571" data-idx="401" transform="matrix(1,0,0,1,-0.5897908210754395,0)">

</circle><circle fill="#f7f5fd" r="60.53223649620781" cy="905.9737410251772" cx="139.6704565447349" data-idx="403" transform="matrix(1,0,0,1,-2.018132448196411,0)">

</circle><circle fill="#f7f5fd" r="54.63184540872744" cy="916.1707929278832" cx="200.2026930409427" data-idx="405" transform="matrix(1,0,0,1,-4.442380905151367,0)">

</circle><circle fill="#f7f5fd" r="42.98693210290505" cy="930.1661689264861" cx="254.83453844967016" data-idx="407" transform="matrix(1,0,0,1,-7.1176958084106445,0)">

</circle><circle fill="#f7f5fd" r="36.63891705405838" cy="937.7301901081344" cx="297.8214705525752" data-idx="409" transform="matrix(1,0,0,1,-8.960148811340332,0)">

</circle><circle fill="#f7f5fd" r="90.03139078663044" cy="897.759737573944" cx="334.46038760663356" data-idx="411" transform="matrix(1,0,0,1,-9.828193664550781,0)">

</circle><circle fill="#f7f5fd" r="79.21407733945632" cy="915.1511296574315" cx="424.491778393264" data-idx="413" transform="matrix(1,0,0,1,-9.985933303833008,0)">

</circle><circle fill="#f7f5fd" r="88.96550763387724" cy="917.4913245047255" cx="503.7058557327203" data-idx="415" transform="matrix(1,0,0,1,-9.535951614379883,0)">

</circle><circle fill="#f7f5fd" r="89.63820492575769" cy="927.1195061264337" cx="592.6713633665976" data-idx="417" transform="matrix(1,0,0,1,-8.24952507019043,0)">

</circle><circle fill="#f7f5fd" r="43.52652331477649" cy="953.046703401564" cx="682.3095682923553" data-idx="419" transform="matrix(1,0,0,1,-5.949373722076416,0)">

</circle><circle fill="#f7f5fd" r="68.84515097277378" cy="948.1100388847816" cx="725.8360916071317" data-idx="421" transform="matrix(1,0,0,1,-3.2294273376464844,0)">

</circle><circle fill="#f7f5fd" r="73.45779978894342" cy="953.1253711488288" cx="794.6812425799055" data-idx="423" transform="matrix(1,0,0,1,-1.2383708953857422,0)">

</circle><circle fill="#f7f5fd" r="36.54162740297313" cy="963.9699802798838" cx="868.139042368849" data-idx="425" transform="matrix(1,0,0,1,-0.24604034423828125,0)">

</circle><circle fill="#f7f5fd" r="61.292757448519026" cy="964.0516695479964" cx="904.6806697718222" data-idx="427" transform="matrix(1,0,0,1,-0.0019459588220342994,0)">

</circle><circle fill="#f7f5fd" r="82.7139801177716" cy="966.9645081245071" cx="965.9734272203413" data-idx="429" transform="matrix(1,0,0,1,-0.35535064339637756,0)">

</circle><circle fill="#f7f5fd" r="44.31697649339051" cy="962.8439845369417" cx="1048.6874073381127" data-idx="431" transform="matrix(1,0,0,1,-1.5048391819000244,0)">

</circle><circle fill="#f7f5fd" r="81.64114258874896" cy="953.9600069845128" cx="1093.0043838315032" data-idx="433" transform="matrix(1,0,0,1,-3.669179677963257,0)">

</circle><circle fill="#f7f5fd" r="63.27762847571433" cy="950.6334262903376" cx="1174.6455264202523" data-idx="435" transform="matrix(1,0,0,1,-6.406158924102783,0)">

</circle><circle fill="#f7f5fd" r="48.2411044138258" cy="950.9285133656759" cx="1237.9231548959667" data-idx="437" transform="matrix(1,0,0,1,-8.542043685913086,0)">

</circle><circle fill="#f7f5fd" r="74.4258625407381" cy="937.1555316578387" cx="1286.1642593097924" data-idx="439" transform="matrix(1,0,0,1,-9.664581298828125,0)">

</circle><circle fill="#f7f5fd" r="58.45856533081707" cy="938.3116007484488" cx="1360.5901218505305" data-idx="441" transform="matrix(1,0,0,1,-9.999143600463867,0)">

</circle><circle fill="#f7f5fd" r="88.91081479859174" cy="916.3221304576839" cx="1419.0486871813475" data-idx="443" transform="matrix(1,0,0,1,-9.7371826171875,0)">

</circle><circle fill="#f7f5fd" r="52.15466011731671" cy="931.8653637352045" cx="1507.9595019799392" data-idx="445" transform="matrix(1,0,0,1,-8.719070434570312,0)">

</circle><circle fill="#f7f5fd" r="72.58216130589712" cy="912.9607804679666" cx="1560.114162097256" data-idx="447" transform="matrix(1,0,0,1,-6.698404312133789,0)">

</circle><circle fill="#f7f5fd" r="84.98707804313567" cy="895.8111591022175" cx="1632.6963234031532" data-idx="449" transform="matrix(1,0,0,1,-3.9727611541748047,0)">

</circle><circle fill="#f7f5fd" r="42.45116929724523" cy="927.4129485033079" cx="1717.6834014462888" data-idx="451" transform="matrix(1,0,0,1,-1.699178695678711,0)">

</circle><circle fill="#f7f5fd" r="47.19384626573583" cy="920.3637615372797" cx="1760.1345707435341" data-idx="453" transform="matrix(1,0,0,1,-0.44078731536865234,0)">

</circle><circle fill="#f7f5fd" r="42.76569497781067" cy="922.3000191534383" cx="1807.32841700927" data-idx="455" transform="matrix(1,0,0,1,-0.010706901550292969,0)">

</circle><circle fill="#f7f5fd" r="69.53735064149119" cy="889.9586580271067" cx="1850.0941119870806" data-idx="457" transform="matrix(1,0,0,1,-0.18559612333774567,0)">

</circle><circle fill="#f7f5fd" r="57.96727229513895" cy="897.8839907284266" cx="1919.6314626285719" data-idx="459" transform="matrix(1,0,0,1,-1.078216552734375,0)">

</circle><circle fill="#ffffff" r="63.68351164935932" cy="953.5797860207688" cx="0" data-idx="461" transform="matrix(1,0,0,1,-5.239835739135742,0)">

</circle><circle fill="#ffffff" r="45.01212669286595" cy="979.5836031500767" cx="63.68351164935932" data-idx="463" transform="matrix(1,0,0,1,-2.3075509071350098,0)">

</circle><circle fill="#ffffff" r="90.3751524087499" cy="933.8804257471717" cx="108.69563834222527" data-idx="465" transform="matrix(1,0,0,1,-0.5896854400634766,0)">

</circle><circle fill="#ffffff" r="50.14272880555359" cy="982.3583731409507" cx="199.07079075097516" data-idx="467" transform="matrix(1,0,0,1,-0.014052391052246094,0)">

</circle><circle fill="#ffffff" r="38.19356905814944" cy="996.1154415269656" cx="249.21351955652875" data-idx="469" transform="matrix(1,0,0,1,-0.24610725045204163,0)">

</circle><circle fill="#ffffff" r="91.80981501972565" cy="952.949717760101" cx="287.4070886146782" data-idx="471" transform="matrix(1,0,0,1,-1.4581447839736938,0)">

</circle><circle fill="#ffffff" r="40.67037417742461" cy="1000.5548313618381" cx="379.2169036344038" data-idx="473" transform="matrix(1,0,0,1,-3.973081111907959,0)">

</circle><circle fill="#ffffff" r="78.4119885363985" cy="977.233056954264" cx="419.8872778118284" data-idx="475" transform="matrix(1,0,0,1,-7.049493789672852,0)">

</circle><circle fill="#ffffff" r="77.3075254592252" cy="985.5852998500119" cx="498.2992663482269" data-idx="477" transform="matrix(1,0,0,1,-9.104143142700195,0)">

</circle><circle fill="#ffffff" r="87.67523156836296" cy="988.1367414870534" cx="575.6067918074522" data-idx="479" transform="matrix(1,0,0,1,-9.92618179321289,0)">

</circle><circle fill="#ffffff" r="66.18682711282396" cy="1005.6810785209533" cx="663.2820233758151" data-idx="481" transform="matrix(1,0,0,1,-9.888052940368652,0)">

</circle><circle fill="#ffffff" r="59.45432758717077" cy="1013.0942378597321" cx="729.4688504886391" data-idx="483" transform="matrix(1,0,0,1,-8.960000038146973,0)">

</circle><circle fill="#ffffff" r="51.12023772147617" cy="1019.2790708939164" cx="788.9231780758098" data-idx="485" transform="matrix(1,0,0,1,-6.7702860832214355,0)">

</circle><circle fill="#ffffff" r="80.95637606390211" cy="1018.2166215425099" cx="840.043415797286" data-idx="487" transform="matrix(1,0,0,1,-3.6688737869262695,0)">

</circle><circle fill="#ffffff" r="52.11774236568499" cy="1027.7102947734008" cx="920.9997918611881" data-idx="489" transform="matrix(1,0,0,1,-1.2807531356811523,0)">

</circle><circle fill="#ffffff" r="70.85158492429471" cy="1028.477651343134" cx="973.1175342268731" data-idx="491" transform="matrix(1,0,0,1,-0.18553733825683594,0)">

</circle><circle fill="#ffffff" r="60.12648621859006" cy="1023.3607438950156" cx="1043.969119151168" data-idx="493" transform="matrix(1,0,0,1,-0.032084427773952484,0)">

</circle><circle fill="#ffffff" r="72.62676517482532" cy="1016.4991153707787" cx="1104.095605369758" data-idx="495" transform="matrix(1,0,0,1,-0.7031430006027222,0)">

</circle><circle fill="#ffffff" r="69.43165375409588" cy="1010.7634486935965" cx="1176.7223705445833" data-idx="497" transform="matrix(1,0,0,1,-2.5548126697540283,0)">

</circle><circle fill="#ffffff" r="62.39155635782051" cy="1007.2763667454233" cx="1246.1540242986791" data-idx="499" transform="matrix(1,0,0,1,-5.5579304695129395,0)">

</circle><circle fill="#ffffff" r="70.91938920058512" cy="998.616338185534" cx="1308.5455806564996" data-idx="501" transform="matrix(1,0,0,1,-8.249730110168457,0)">

</circle><circle fill="#ffffff" r="40.18425631629656" cy="1008.6402198037115" cx="1379.4649698570847" data-idx="503" transform="matrix(1,0,0,1,-9.644730567932129,0)">

</circle><circle fill="#ffffff" r="39.97367006880786" cy="1006.7358646091471" cx="1419.6492261733813" data-idx="505" transform="matrix(1,0,0,1,-9.999140739440918,0)">

</circle><circle fill="#ffffff" r="46.93034672142643" cy="1000.3323885303411" cx="1459.6228962421892" data-idx="507" transform="matrix(1,0,0,1,-9.559117317199707,0)">

</circle><circle fill="#ffffff" r="85.44075743765127" cy="970.9543689264855" cx="1506.5532429636157" data-idx="509" transform="matrix(1,0,0,1,-8.037381172180176,0)">

</circle><circle fill="#ffffff" r="32.10810727690763" cy="1004.3674933987195" cx="1591.994000401267" data-idx="511" transform="matrix(1,0,0,1,-5.239835739135742,0)">

</circle><circle fill="#ffffff" r="75.92447462408677" cy="966.328073404966" cx="1624.1021076781747" data-idx="513" transform="matrix(1,0,0,1,-2.3075509071350098,0)">

</circle><circle fill="#ffffff" r="31.916436127933743" cy="1000.1924557846842" cx="1700.0265823022614" data-idx="515" transform="matrix(1,0,0,1,-0.5896854400634766,0)">

</circle><circle fill="#ffffff" r="49.848294231207646" cy="981.4484068334397" cx="1731.9430184301953" data-idx="517" transform="matrix(1,0,0,1,-0.014052391052246094,0)">

</circle><circle fill="#ffffff" r="44.98177068545553" cy="983.3737797571006" cx="1781.7913126614028" data-idx="519" transform="matrix(1,0,0,1,-0.24610725045204163,0)">

</circle><circle fill="#ffffff" r="44.0546179549478" cy="981.8473947544379" cx="1826.7730833468584" data-idx="521" transform="matrix(1,0,0,1,-1.4581447839736938,0)">

</circle><circle fill="#ffffff" r="71.11372252787972" cy="948.3387406135632" cx="1870.8277013018062" data-idx="523" transform="matrix(1,0,0,1,-3.973081111907959,0)">

</circle><circle fill="#ffffff" r="64.5037337515568" cy="950.1712513422499" cx="1941.9414238296858" data-idx="525" transform="matrix(1,0,0,1,-7.049493789672852,0)">

</circle><g data-idx="527"></g></g></svg>